
<svg width="160" height="50" viewBox="0 0 160 50" fill="none" xmlns="http://www.w3.org/2000/svg">
  <path d="M25 10L40 40H10L25 10Z" fill="#0052B4"/>
  <path d="M25 15L35 35H15L25 15Z" fill="#D80027"/>
  <path d="M25 20L30 30H20L25 20Z" fill="#D4AF37"/>
  <path d="M60 15H54L45 35H51L52.5 31H61.5L63 35H69L60 15ZM54.5 26L57 20L59.5 26H54.5Z" fill="#FFFFFF"/>
  <path d="M71 15H77V29.5C77 31.5 78 32.5 80 32.5C82 32.5 83 31.5 83 29.5V15H89V30C89 33.5 86 36 80 36C74 36 71 33.5 71 30V15Z" fill="#FFFFFF"/>
  <path d="M92 15H98V22.5H105V15H111V35H105V27.5H98V35H92V15Z" fill="#FFFFFF"/>
  <path d="M125 35L114 24.5V35H108V15H114V24.5L124.5 15H132L120 25.5L133 35H125Z" fill="#FFFFFF"/>
</svg>
